<svg xmlns="http://www.w3.org/2000/svg" xmlns:xlink="http://www.w3.org/1999/xlink" width="837px" version="1.1" viewBox="0 0 837 191" style="max-width:100%;max-height:191px;"><defs/><g transform="translate(0.5,0.5)"><ellipse cx="418" cy="15" rx="40" ry="15" fill="#ffffff" stroke="#000000" pointer-events="none"/><g fill="#000000" font-family="Helvetica" text-anchor="middle" font-size="12px"><text x="417.5" y="18.5">ABCD</text></g><rect x="50" y="80" width="80" height="30" rx="4.5" ry="4.5" fill="#ffffff" stroke="#000000" pointer-events="none"/><g fill="#000000" font-family="Helvetica" text-anchor="middle" font-size="12px"><text x="89.5" y="98.5">ABC</text></g><path d="M 418 30 L 418 45 Q 418 55 408 55 L 100 55 Q 90 55 90 64.32 L 90 73.63" fill="none" stroke="#000000" stroke-miterlimit="10" pointer-events="none"/><path d="M 90 78.88 L 86.5 71.88 L 90 73.63 L 93.5 71.88 Z" fill="#000000" stroke="#000000" stroke-miterlimit="10" pointer-events="none"/><rect x="268" y="80" width="80" height="30" rx="4.5" ry="4.5" fill="#ffffff" stroke="#000000" pointer-events="none"/><g fill="#000000" font-family="Helvetica" text-anchor="middle" font-size="12px"><text x="307.5" y="98.5">ABD</text></g><path d="M 418 30 L 418 45 Q 418 55 408 55 L 318 55 Q 308 55 308 64.32 L 308 73.63" fill="none" stroke="#000000" stroke-miterlimit="10" pointer-events="none"/><path d="M 308 78.88 L 304.5 71.88 L 308 73.63 L 311.5 71.88 Z" fill="#000000" stroke="#000000" stroke-miterlimit="10" pointer-events="none"/><rect x="486" y="80" width="80" height="30" rx="4.5" ry="4.5" fill="#ffffff" stroke="#000000" pointer-events="none"/><g fill="#000000" font-family="Helvetica" text-anchor="middle" font-size="12px"><text x="525.5" y="98.5">ACD</text></g><path d="M 418 30 L 418 45 Q 418 55 428 55 L 516 55 Q 526 55 526 64.32 L 526 73.63" fill="none" stroke="#000000" stroke-miterlimit="10" pointer-events="none"/><path d="M 526 78.88 L 522.5 71.88 L 526 73.63 L 529.5 71.88 Z" fill="#000000" stroke="#000000" stroke-miterlimit="10" pointer-events="none"/><rect x="706" y="80" width="80" height="30" rx="4.5" ry="4.5" fill="#ffffff" stroke="#000000" pointer-events="none"/><g fill="#000000" font-family="Helvetica" text-anchor="middle" font-size="12px"><text x="745.5" y="98.5">BCD</text></g><path d="M 418 30 L 418 45 Q 418 55 428 55 L 736 55 Q 746 55 746 64.32 L 746 73.63" fill="none" stroke="#000000" stroke-miterlimit="10" pointer-events="none"/><path d="M 746 78.88 L 742.5 71.88 L 746 73.63 L 749.5 71.88 Z" fill="#000000" stroke="#000000" stroke-miterlimit="10" pointer-events="none"/><rect x="0" y="160" width="40" height="30" rx="4.5" ry="4.5" fill="#ffffff" stroke="#000000" pointer-events="none"/><g fill="#000000" font-family="Helvetica" text-anchor="middle" font-size="12px"><text x="19.5" y="178.5">B</text></g><path d="M 90 110 L 90 125 Q 90 135 80 135 L 30 135 Q 20 135 20 144.32 L 20 153.63" fill="none" stroke="#000000" stroke-miterlimit="10" pointer-events="none"/><path d="M 20 158.88 L 16.5 151.88 L 20 153.63 L 23.5 151.88 Z" fill="#000000" stroke="#000000" stroke-miterlimit="10" pointer-events="none"/><rect x="70" y="160" width="40" height="30" rx="4.5" ry="4.5" fill="#ffffff" stroke="#000000" pointer-events="none"/><g fill="#000000" font-family="Helvetica" text-anchor="middle" font-size="12px"><text x="89.5" y="178.5">C</text></g><path d="M 90 110 L 90 125 Q 90 135 90 144.32 L 90 153.63" fill="none" stroke="#000000" stroke-miterlimit="10" pointer-events="none"/><path d="M 90 158.88 L 86.5 151.88 L 90 153.63 L 93.5 151.88 Z" fill="#000000" stroke="#000000" stroke-miterlimit="10" pointer-events="none"/><rect x="140" y="160" width="40" height="30" rx="4.5" ry="4.5" fill="#ffffff" stroke="#000000" pointer-events="none"/><g fill="#000000" font-family="Helvetica" text-anchor="middle" font-size="12px"><text x="159.5" y="178.5">B</text></g><path d="M 90 110 L 90 125 Q 90 135 100 135 L 150 135 Q 160 135 160 144.32 L 160 153.63" fill="none" stroke="#000000" stroke-miterlimit="10" pointer-events="none"/><path d="M 160 158.88 L 156.5 151.88 L 160 153.63 L 163.5 151.88 Z" fill="#000000" stroke="#000000" stroke-miterlimit="10" pointer-events="none"/><rect x="218" y="160" width="40" height="30" rx="4.5" ry="4.5" fill="#ffffff" stroke="#000000" pointer-events="none"/><g fill="#000000" font-family="Helvetica" text-anchor="middle" font-size="12px"><text x="237.5" y="178.5">B</text></g><path d="M 308 110 L 308 125 Q 308 135 298 135 L 248 135 Q 238 135 238 144.32 L 238 153.63" fill="none" stroke="#000000" stroke-miterlimit="10" pointer-events="none"/><path d="M 238 158.88 L 234.5 151.88 L 238 153.63 L 241.5 151.88 Z" fill="#000000" stroke="#000000" stroke-miterlimit="10" pointer-events="none"/><rect x="288" y="160" width="40" height="30" rx="4.5" ry="4.5" fill="#ffffff" stroke="#000000" pointer-events="none"/><g fill="#000000" font-family="Helvetica" text-anchor="middle" font-size="12px"><text x="307.5" y="178.5">D</text></g><path d="M 308 110 L 308 125 Q 308 135 308 144.32 L 308 153.63" fill="none" stroke="#000000" stroke-miterlimit="10" pointer-events="none"/><path d="M 308 158.88 L 304.5 151.88 L 308 153.63 L 311.5 151.88 Z" fill="#000000" stroke="#000000" stroke-miterlimit="10" pointer-events="none"/><rect x="358" y="160" width="40" height="30" rx="4.5" ry="4.5" fill="#ffffff" stroke="#000000" pointer-events="none"/><g fill="#000000" font-family="Helvetica" text-anchor="middle" font-size="12px"><text x="377.5" y="178.5">D</text></g><path d="M 308 110 L 308 125 Q 308 135 318 135 L 368 135 Q 378 135 378 144.32 L 378 153.63" fill="none" stroke="#000000" stroke-miterlimit="10" pointer-events="none"/><path d="M 378 158.88 L 374.5 151.88 L 378 153.63 L 381.5 151.88 Z" fill="#000000" stroke="#000000" stroke-miterlimit="10" pointer-events="none"/><rect x="436" y="160" width="40" height="30" rx="4.5" ry="4.5" fill="#ffffff" stroke="#000000" pointer-events="none"/><g fill="#000000" font-family="Helvetica" text-anchor="middle" font-size="12px"><text x="455.5" y="178.5">C</text></g><path d="M 526 110 L 526 125 Q 526 135 516 135 L 466 135 Q 456 135 456 144.32 L 456 153.63" fill="none" stroke="#000000" stroke-miterlimit="10" pointer-events="none"/><path d="M 456 158.88 L 452.5 151.88 L 456 153.63 L 459.5 151.88 Z" fill="#000000" stroke="#000000" stroke-miterlimit="10" pointer-events="none"/><rect x="506" y="160" width="40" height="30" rx="4.5" ry="4.5" fill="#ffffff" stroke="#000000" pointer-events="none"/><g fill="#000000" font-family="Helvetica" text-anchor="middle" font-size="12px"><text x="525.5" y="178.5">D</text></g><path d="M 526 110 L 526 125 Q 526 135 526 144.32 L 526 153.63" fill="none" stroke="#000000" stroke-miterlimit="10" pointer-events="none"/><path d="M 526 158.88 L 522.5 151.88 L 526 153.63 L 529.5 151.88 Z" fill="#000000" stroke="#000000" stroke-miterlimit="10" pointer-events="none"/><rect x="576" y="160" width="40" height="30" rx="4.5" ry="4.5" fill="#ffffff" stroke="#000000" pointer-events="none"/><g fill="#000000" font-family="Helvetica" text-anchor="middle" font-size="12px"><text x="595.5" y="178.5">D</text></g><path d="M 526 110 L 526 125 Q 526 135 536 135 L 586 135 Q 596 135 596 144.32 L 596 153.63" fill="none" stroke="#000000" stroke-miterlimit="10" pointer-events="none"/><path d="M 596 158.88 L 592.5 151.88 L 596 153.63 L 599.5 151.88 Z" fill="#000000" stroke="#000000" stroke-miterlimit="10" pointer-events="none"/><rect x="656" y="160" width="40" height="30" rx="4.5" ry="4.5" fill="#ffffff" stroke="#000000" pointer-events="none"/><g fill="#000000" font-family="Helvetica" text-anchor="middle" font-size="12px"><text x="675.5" y="178.5">B</text></g><path d="M 746 110 L 746 125 Q 746 135 736 135 L 686 135 Q 676 135 676 144.32 L 676 153.63" fill="none" stroke="#000000" stroke-miterlimit="10" pointer-events="none"/><path d="M 676 158.88 L 672.5 151.88 L 676 153.63 L 679.5 151.88 Z" fill="#000000" stroke="#000000" stroke-miterlimit="10" pointer-events="none"/><rect x="726" y="160" width="40" height="30" rx="4.5" ry="4.5" fill="#ffffff" stroke="#000000" pointer-events="none"/><g fill="#000000" font-family="Helvetica" text-anchor="middle" font-size="12px"><text x="745.5" y="178.5">D</text></g><path d="M 746 110 L 746 125 Q 746 135 746 144.32 L 746 153.63" fill="none" stroke="#000000" stroke-miterlimit="10" pointer-events="none"/><path d="M 746 158.88 L 742.5 151.88 L 746 153.63 L 749.5 151.88 Z" fill="#000000" stroke="#000000" stroke-miterlimit="10" pointer-events="none"/><rect x="796" y="160" width="40" height="30" rx="4.5" ry="4.5" fill="#ffffff" stroke="#000000" pointer-events="none"/><g fill="#000000" font-family="Helvetica" text-anchor="middle" font-size="12px"><text x="815.5" y="178.5">D</text></g><path d="M 746 110 L 746 125 Q 746 135 756 135 L 806 135 Q 816 135 816 144.32 L 816 153.63" fill="none" stroke="#000000" stroke-miterlimit="10" pointer-events="none"/><path d="M 816 158.88 L 812.5 151.88 L 816 153.63 L 819.5 151.88 Z" fill="#000000" stroke="#000000" stroke-miterlimit="10" pointer-events="none"/></g></svg>