<svg xmlns="http://www.w3.org/2000/svg" xmlns:xlink="http://www.w3.org/1999/xlink" width="737px" version="1.1" viewBox="0 0 737 111" style="max-width:100%;max-height:111px;"><defs/><g transform="translate(0.5,0.5)"><ellipse cx="368" cy="15" rx="40" ry="15" fill="#ffffff" stroke="#000000" pointer-events="none"/><g fill="#000000" font-family="Helvetica" text-anchor="middle" font-size="12px"><text x="367.5" y="18.5">ABCD</text></g><rect x="0" y="80" width="80" height="30" rx="4.5" ry="4.5" fill="#ffffff" stroke="#000000" pointer-events="none"/><g fill="#000000" font-family="Helvetica" text-anchor="middle" font-size="12px"><text x="39.5" y="98.5">C</text></g><path d="M 368 30 L 368 45 Q 368 55 358 55 L 50 55 Q 40 55 40 64.32 L 40 73.63" fill="none" stroke="#000000" stroke-miterlimit="10" pointer-events="none"/><path d="M 40 78.88 L 36.5 71.88 L 40 73.63 L 43.5 71.88 Z" fill="#000000" stroke="#000000" stroke-miterlimit="10" pointer-events="none"/><rect x="218" y="80" width="80" height="30" rx="4.5" ry="4.5" fill="#ffffff" stroke="#000000" pointer-events="none"/><g fill="#000000" font-family="Helvetica" text-anchor="middle" font-size="12px"><text x="257.5" y="98.5">B</text></g><path d="M 368 30 L 368 45 Q 368 55 358 55 L 268 55 Q 258 55 258 64.32 L 258 73.63" fill="none" stroke="#000000" stroke-miterlimit="10" pointer-events="none"/><path d="M 258 78.88 L 254.5 71.88 L 258 73.63 L 261.5 71.88 Z" fill="#000000" stroke="#000000" stroke-miterlimit="10" pointer-events="none"/><rect x="436" y="80" width="80" height="30" rx="4.5" ry="4.5" fill="#ffffff" stroke="#000000" pointer-events="none"/><g fill="#000000" font-family="Helvetica" text-anchor="middle" font-size="12px"><text x="475.5" y="98.5">C</text></g><path d="M 368 30 L 368 45 Q 368 55 378 55 L 466 55 Q 476 55 476 64.32 L 476 73.63" fill="none" stroke="#000000" stroke-miterlimit="10" pointer-events="none"/><path d="M 476 78.88 L 472.5 71.88 L 476 73.63 L 479.5 71.88 Z" fill="#000000" stroke="#000000" stroke-miterlimit="10" pointer-events="none"/><rect x="656" y="80" width="80" height="30" rx="4.5" ry="4.5" fill="#ffffff" stroke="#000000" pointer-events="none"/><g fill="#000000" font-family="Helvetica" text-anchor="middle" font-size="12px"><text x="695.5" y="98.5">B</text></g><path d="M 368 30 L 368 45 Q 368 55 378 55 L 686 55 Q 696 55 696 64.32 L 696 73.63" fill="none" stroke="#000000" stroke-miterlimit="10" pointer-events="none"/><path d="M 696 78.88 L 692.5 71.88 L 696 73.63 L 699.5 71.88 Z" fill="#000000" stroke="#000000" stroke-miterlimit="10" pointer-events="none"/></g></svg>