<svg xmlns="http://www.w3.org/2000/svg" xmlns:xlink="http://www.w3.org/1999/xlink" width="857px" version="1.1" viewBox="0 0 857 271" style="max-width:100%;max-height:271px;"><defs/><g transform="translate(0.5,0.5)"><ellipse cx="428" cy="15" rx="40" ry="15" fill="#ffffff" stroke="#000000" pointer-events="none"/><g fill="#000000" font-family="Helvetica" text-anchor="middle" font-size="12px"><text x="427.5" y="18.5">ABCD</text></g><rect x="60" y="80" width="80" height="30" rx="4.5" ry="4.5" fill="#ffffff" stroke="#000000" pointer-events="none"/><g fill="#000000" font-family="Helvetica" text-anchor="middle" font-size="12px"><text x="99.5" y="98.5">ABC</text></g><path d="M 428 30 L 428 45 Q 428 55 418 55 L 110 55 Q 100 55 100 64.32 L 100 73.63" fill="none" stroke="#000000" stroke-miterlimit="10" pointer-events="none"/><path d="M 100 78.88 L 96.5 71.88 L 100 73.63 L 103.5 71.88 Z" fill="#000000" stroke="#000000" stroke-miterlimit="10" pointer-events="none"/><rect x="278" y="80" width="80" height="30" rx="4.5" ry="4.5" fill="#ffffff" stroke="#000000" pointer-events="none"/><g fill="#000000" font-family="Helvetica" text-anchor="middle" font-size="12px"><text x="317.5" y="98.5">ABD</text></g><path d="M 428 30 L 428 45 Q 428 55 418 55 L 328 55 Q 318 55 318 64.32 L 318 73.63" fill="none" stroke="#000000" stroke-miterlimit="10" pointer-events="none"/><path d="M 318 78.88 L 314.5 71.88 L 318 73.63 L 321.5 71.88 Z" fill="#000000" stroke="#000000" stroke-miterlimit="10" pointer-events="none"/><rect x="496" y="80" width="80" height="30" rx="4.5" ry="4.5" fill="#ffffff" stroke="#000000" pointer-events="none"/><g fill="#000000" font-family="Helvetica" text-anchor="middle" font-size="12px"><text x="535.5" y="98.5">ACD</text></g><path d="M 428 30 L 428 45 Q 428 55 438 55 L 526 55 Q 536 55 536 64.32 L 536 73.63" fill="none" stroke="#000000" stroke-miterlimit="10" pointer-events="none"/><path d="M 536 78.88 L 532.5 71.88 L 536 73.63 L 539.5 71.88 Z" fill="#000000" stroke="#000000" stroke-miterlimit="10" pointer-events="none"/><rect x="716" y="80" width="80" height="30" rx="4.5" ry="4.5" fill="#ffffff" stroke="#000000" pointer-events="none"/><g fill="#000000" font-family="Helvetica" text-anchor="middle" font-size="12px"><text x="755.5" y="98.5">BCD</text></g><path d="M 428 30 L 428 45 Q 428 55 438 55 L 746 55 Q 756 55 756 64.32 L 756 73.63" fill="none" stroke="#000000" stroke-miterlimit="10" pointer-events="none"/><path d="M 756 78.88 L 752.5 71.88 L 756 73.63 L 759.5 71.88 Z" fill="#000000" stroke="#000000" stroke-miterlimit="10" pointer-events="none"/><rect x="10" y="160" width="40" height="30" rx="4.5" ry="4.5" fill="#ffffff" stroke="#000000" pointer-events="none"/><g fill="#000000" font-family="Helvetica" text-anchor="middle" font-size="12px"><text x="29.5" y="178.5">AB</text></g><path d="M 100 110 L 100 125 Q 100 135 90 135 L 40 135 Q 30 135 30 144.32 L 30 153.63" fill="none" stroke="#000000" stroke-miterlimit="10" pointer-events="none"/><path d="M 30 158.88 L 26.5 151.88 L 30 153.63 L 33.5 151.88 Z" fill="#000000" stroke="#000000" stroke-miterlimit="10" pointer-events="none"/><rect x="80" y="160" width="40" height="30" rx="4.5" ry="4.5" fill="#ffffff" stroke="#000000" pointer-events="none"/><g fill="#000000" font-family="Helvetica" text-anchor="middle" font-size="12px"><text x="99.5" y="178.5">AC</text></g><path d="M 100 110 L 100 125 Q 100 135 100 144.32 L 100 153.63" fill="none" stroke="#000000" stroke-miterlimit="10" pointer-events="none"/><path d="M 100 158.88 L 96.5 151.88 L 100 153.63 L 103.5 151.88 Z" fill="#000000" stroke="#000000" stroke-miterlimit="10" pointer-events="none"/><rect x="150" y="160" width="40" height="30" rx="4.5" ry="4.5" fill="#ffffff" stroke="#000000" pointer-events="none"/><g fill="#000000" font-family="Helvetica" text-anchor="middle" font-size="12px"><text x="169.5" y="178.5">BC</text></g><path d="M 100 110 L 100 125 Q 100 135 110 135 L 160 135 Q 170 135 170 144.32 L 170 153.63" fill="none" stroke="#000000" stroke-miterlimit="10" pointer-events="none"/><path d="M 170 158.88 L 166.5 151.88 L 170 153.63 L 173.5 151.88 Z" fill="#000000" stroke="#000000" stroke-miterlimit="10" pointer-events="none"/><rect x="0" y="240" width="20" height="30" rx="3" ry="3" fill="#ffffff" stroke="#000000" pointer-events="none"/><g fill="#000000" font-family="Helvetica" text-anchor="middle" font-size="12px"><text x="9.5" y="258.5">A</text></g><path d="M 30 190 L 30 205 Q 30 215 20 215 L 15 215 Q 10 215 10 224.32 L 10 233.63" fill="none" stroke="#000000" stroke-miterlimit="10" pointer-events="none"/><path d="M 10 238.88 L 6.5 231.88 L 10 233.63 L 13.5 231.88 Z" fill="#000000" stroke="#000000" stroke-miterlimit="10" pointer-events="none"/><rect x="40" y="240" width="20" height="30" rx="3" ry="3" fill="#ffffff" stroke="#000000" pointer-events="none"/><g fill="#000000" font-family="Helvetica" text-anchor="middle" font-size="12px"><text x="49.5" y="258.5">B</text></g><path d="M 30 190 L 30 205 Q 30 215 40 215 L 45 215 Q 50 215 50 224.32 L 50 233.63" fill="none" stroke="#000000" stroke-miterlimit="10" pointer-events="none"/><path d="M 50 238.88 L 46.5 231.88 L 50 233.63 L 53.5 231.88 Z" fill="#000000" stroke="#000000" stroke-miterlimit="10" pointer-events="none"/><rect x="70" y="240" width="20" height="30" rx="3" ry="3" fill="#ffffff" stroke="#000000" pointer-events="none"/><g fill="#000000" font-family="Helvetica" text-anchor="middle" font-size="12px"><text x="79.5" y="258.5">A</text></g><path d="M 100 190 L 100 205 Q 100 215 90 215 L 85 215 Q 80 215 80 224.32 L 80 233.63" fill="none" stroke="#000000" stroke-miterlimit="10" pointer-events="none"/><path d="M 80 238.88 L 76.5 231.88 L 80 233.63 L 83.5 231.88 Z" fill="#000000" stroke="#000000" stroke-miterlimit="10" pointer-events="none"/><rect x="110" y="240" width="20" height="30" rx="3" ry="3" fill="#ffffff" stroke="#000000" pointer-events="none"/><g fill="#000000" font-family="Helvetica" text-anchor="middle" font-size="12px"><text x="119.5" y="258.5">C</text></g><path d="M 100 190 L 100 205 Q 100 215 110 215 L 115 215 Q 120 215 120 224.32 L 120 233.63" fill="none" stroke="#000000" stroke-miterlimit="10" pointer-events="none"/><path d="M 120 238.88 L 116.5 231.88 L 120 233.63 L 123.5 231.88 Z" fill="#000000" stroke="#000000" stroke-miterlimit="10" pointer-events="none"/><rect x="140" y="240" width="20" height="30" rx="3" ry="3" fill="#ffffff" stroke="#000000" pointer-events="none"/><g fill="#000000" font-family="Helvetica" text-anchor="middle" font-size="12px"><text x="149.5" y="258.5">B</text></g><path d="M 170 190 L 170 205 Q 170 215 160 215 L 155 215 Q 150 215 150 224.32 L 150 233.63" fill="none" stroke="#000000" stroke-miterlimit="10" pointer-events="none"/><path d="M 150 238.88 L 146.5 231.88 L 150 233.63 L 153.5 231.88 Z" fill="#000000" stroke="#000000" stroke-miterlimit="10" pointer-events="none"/><rect x="180" y="240" width="20" height="30" rx="3" ry="3" fill="#ffffff" stroke="#000000" pointer-events="none"/><g fill="#000000" font-family="Helvetica" text-anchor="middle" font-size="12px"><text x="189.5" y="258.5">C</text></g><path d="M 170 190 L 170 205 Q 170 215 180 215 L 185 215 Q 190 215 190 224.32 L 190 233.63" fill="none" stroke="#000000" stroke-miterlimit="10" pointer-events="none"/><path d="M 190 238.88 L 186.5 231.88 L 190 233.63 L 193.5 231.88 Z" fill="#000000" stroke="#000000" stroke-miterlimit="10" pointer-events="none"/><rect x="228" y="160" width="40" height="30" rx="4.5" ry="4.5" fill="#ffffff" stroke="#000000" pointer-events="none"/><g fill="#000000" font-family="Helvetica" text-anchor="middle" font-size="12px"><text x="247.5" y="178.5">AB</text></g><path d="M 318 110 L 318 125 Q 318 135 308 135 L 258 135 Q 248 135 248 144.32 L 248 153.63" fill="none" stroke="#000000" stroke-miterlimit="10" pointer-events="none"/><path d="M 248 158.88 L 244.5 151.88 L 248 153.63 L 251.5 151.88 Z" fill="#000000" stroke="#000000" stroke-miterlimit="10" pointer-events="none"/><rect x="298" y="160" width="40" height="30" rx="4.5" ry="4.5" fill="#ffffff" stroke="#000000" pointer-events="none"/><g fill="#000000" font-family="Helvetica" text-anchor="middle" font-size="12px"><text x="317.5" y="178.5">AD</text></g><path d="M 318 110 L 318 125 Q 318 135 318 144.32 L 318 153.63" fill="none" stroke="#000000" stroke-miterlimit="10" pointer-events="none"/><path d="M 318 158.88 L 314.5 151.88 L 318 153.63 L 321.5 151.88 Z" fill="#000000" stroke="#000000" stroke-miterlimit="10" pointer-events="none"/><rect x="368" y="160" width="40" height="30" rx="4.5" ry="4.5" fill="#ffffff" stroke="#000000" pointer-events="none"/><g fill="#000000" font-family="Helvetica" text-anchor="middle" font-size="12px"><text x="387.5" y="178.5">BD</text></g><path d="M 318 110 L 318 125 Q 318 135 328 135 L 378 135 Q 388 135 388 144.32 L 388 153.63" fill="none" stroke="#000000" stroke-miterlimit="10" pointer-events="none"/><path d="M 388 158.88 L 384.5 151.88 L 388 153.63 L 391.5 151.88 Z" fill="#000000" stroke="#000000" stroke-miterlimit="10" pointer-events="none"/><rect x="218" y="240" width="20" height="30" rx="3" ry="3" fill="#ffffff" stroke="#000000" pointer-events="none"/><g fill="#000000" font-family="Helvetica" text-anchor="middle" font-size="12px"><text x="227.5" y="258.5">A</text></g><path d="M 248 190 L 248 205 Q 248 215 238 215 L 233 215 Q 228 215 228 224.32 L 228 233.63" fill="none" stroke="#000000" stroke-miterlimit="10" pointer-events="none"/><path d="M 228 238.88 L 224.5 231.88 L 228 233.63 L 231.5 231.88 Z" fill="#000000" stroke="#000000" stroke-miterlimit="10" pointer-events="none"/><rect x="258" y="240" width="20" height="30" rx="3" ry="3" fill="#ffffff" stroke="#000000" pointer-events="none"/><g fill="#000000" font-family="Helvetica" text-anchor="middle" font-size="12px"><text x="267.5" y="258.5">B</text></g><path d="M 248 190 L 248 205 Q 248 215 258 215 L 263 215 Q 268 215 268 224.32 L 268 233.63" fill="none" stroke="#000000" stroke-miterlimit="10" pointer-events="none"/><path d="M 268 238.88 L 264.5 231.88 L 268 233.63 L 271.5 231.88 Z" fill="#000000" stroke="#000000" stroke-miterlimit="10" pointer-events="none"/><rect x="288" y="240" width="20" height="30" rx="3" ry="3" fill="#ffffff" stroke="#000000" pointer-events="none"/><g fill="#000000" font-family="Helvetica" text-anchor="middle" font-size="12px"><text x="297.5" y="258.5">A</text></g><path d="M 318 190 L 318 205 Q 318 215 308 215 L 303 215 Q 298 215 298 224.32 L 298 233.63" fill="none" stroke="#000000" stroke-miterlimit="10" pointer-events="none"/><path d="M 298 238.88 L 294.5 231.88 L 298 233.63 L 301.5 231.88 Z" fill="#000000" stroke="#000000" stroke-miterlimit="10" pointer-events="none"/><rect x="328" y="240" width="20" height="30" rx="3" ry="3" fill="#ffffff" stroke="#000000" pointer-events="none"/><g fill="#000000" font-family="Helvetica" text-anchor="middle" font-size="12px"><text x="337.5" y="258.5">D</text></g><path d="M 318 190 L 318 205 Q 318 215 328 215 L 333 215 Q 338 215 338 224.32 L 338 233.63" fill="none" stroke="#000000" stroke-miterlimit="10" pointer-events="none"/><path d="M 338 238.88 L 334.5 231.88 L 338 233.63 L 341.5 231.88 Z" fill="#000000" stroke="#000000" stroke-miterlimit="10" pointer-events="none"/><rect x="358" y="240" width="20" height="30" rx="3" ry="3" fill="#ffffff" stroke="#000000" pointer-events="none"/><g fill="#000000" font-family="Helvetica" text-anchor="middle" font-size="12px"><text x="367.5" y="258.5">B</text></g><path d="M 388 190 L 388 205 Q 388 215 378 215 L 373 215 Q 368 215 368 224.32 L 368 233.63" fill="none" stroke="#000000" stroke-miterlimit="10" pointer-events="none"/><path d="M 368 238.88 L 364.5 231.88 L 368 233.63 L 371.5 231.88 Z" fill="#000000" stroke="#000000" stroke-miterlimit="10" pointer-events="none"/><rect x="398" y="240" width="20" height="30" rx="3" ry="3" fill="#ffffff" stroke="#000000" pointer-events="none"/><g fill="#000000" font-family="Helvetica" text-anchor="middle" font-size="12px"><text x="407.5" y="258.5">D</text></g><path d="M 388 190 L 388 205 Q 388 215 398 215 L 403 215 Q 408 215 408 224.32 L 408 233.63" fill="none" stroke="#000000" stroke-miterlimit="10" pointer-events="none"/><path d="M 408 238.88 L 404.5 231.88 L 408 233.63 L 411.5 231.88 Z" fill="#000000" stroke="#000000" stroke-miterlimit="10" pointer-events="none"/><rect x="446" y="160" width="40" height="30" rx="4.5" ry="4.5" fill="#ffffff" stroke="#000000" pointer-events="none"/><g fill="#000000" font-family="Helvetica" text-anchor="middle" font-size="12px"><text x="465.5" y="178.5">AC</text></g><path d="M 536 110 L 536 125 Q 536 135 526 135 L 476 135 Q 466 135 466 144.32 L 466 153.63" fill="none" stroke="#000000" stroke-miterlimit="10" pointer-events="none"/><path d="M 466 158.88 L 462.5 151.88 L 466 153.63 L 469.5 151.88 Z" fill="#000000" stroke="#000000" stroke-miterlimit="10" pointer-events="none"/><rect x="516" y="160" width="40" height="30" rx="4.5" ry="4.5" fill="#ffffff" stroke="#000000" pointer-events="none"/><g fill="#000000" font-family="Helvetica" text-anchor="middle" font-size="12px"><text x="535.5" y="178.5">AD</text></g><path d="M 536 110 L 536 125 Q 536 135 536 144.32 L 536 153.63" fill="none" stroke="#000000" stroke-miterlimit="10" pointer-events="none"/><path d="M 536 158.88 L 532.5 151.88 L 536 153.63 L 539.5 151.88 Z" fill="#000000" stroke="#000000" stroke-miterlimit="10" pointer-events="none"/><rect x="586" y="160" width="40" height="30" rx="4.5" ry="4.5" fill="#ffffff" stroke="#000000" pointer-events="none"/><g fill="#000000" font-family="Helvetica" text-anchor="middle" font-size="12px"><text x="605.5" y="178.5">CD</text></g><path d="M 536 110 L 536 125 Q 536 135 546 135 L 596 135 Q 606 135 606 144.32 L 606 153.63" fill="none" stroke="#000000" stroke-miterlimit="10" pointer-events="none"/><path d="M 606 158.88 L 602.5 151.88 L 606 153.63 L 609.5 151.88 Z" fill="#000000" stroke="#000000" stroke-miterlimit="10" pointer-events="none"/><rect x="436" y="240" width="20" height="30" rx="3" ry="3" fill="#ffffff" stroke="#000000" pointer-events="none"/><g fill="#000000" font-family="Helvetica" text-anchor="middle" font-size="12px"><text x="445.5" y="258.5">A</text></g><path d="M 466 190 L 466 205 Q 466 215 456 215 L 451 215 Q 446 215 446 224.32 L 446 233.63" fill="none" stroke="#000000" stroke-miterlimit="10" pointer-events="none"/><path d="M 446 238.88 L 442.5 231.88 L 446 233.63 L 449.5 231.88 Z" fill="#000000" stroke="#000000" stroke-miterlimit="10" pointer-events="none"/><rect x="476" y="240" width="20" height="30" rx="3" ry="3" fill="#ffffff" stroke="#000000" pointer-events="none"/><g fill="#000000" font-family="Helvetica" text-anchor="middle" font-size="12px"><text x="485.5" y="258.5">C</text></g><path d="M 466 190 L 466 205 Q 466 215 476 215 L 481 215 Q 486 215 486 224.32 L 486 233.63" fill="none" stroke="#000000" stroke-miterlimit="10" pointer-events="none"/><path d="M 486 238.88 L 482.5 231.88 L 486 233.63 L 489.5 231.88 Z" fill="#000000" stroke="#000000" stroke-miterlimit="10" pointer-events="none"/><rect x="506" y="240" width="20" height="30" rx="3" ry="3" fill="#ffffff" stroke="#000000" pointer-events="none"/><g fill="#000000" font-family="Helvetica" text-anchor="middle" font-size="12px"><text x="515.5" y="258.5">A</text></g><path d="M 536 190 L 536 205 Q 536 215 526 215 L 521 215 Q 516 215 516 224.32 L 516 233.63" fill="none" stroke="#000000" stroke-miterlimit="10" pointer-events="none"/><path d="M 516 238.88 L 512.5 231.88 L 516 233.63 L 519.5 231.88 Z" fill="#000000" stroke="#000000" stroke-miterlimit="10" pointer-events="none"/><rect x="546" y="240" width="20" height="30" rx="3" ry="3" fill="#ffffff" stroke="#000000" pointer-events="none"/><g fill="#000000" font-family="Helvetica" text-anchor="middle" font-size="12px"><text x="555.5" y="258.5">D</text></g><path d="M 536 190 L 536 205 Q 536 215 546 215 L 551 215 Q 556 215 556 224.32 L 556 233.63" fill="none" stroke="#000000" stroke-miterlimit="10" pointer-events="none"/><path d="M 556 238.88 L 552.5 231.88 L 556 233.63 L 559.5 231.88 Z" fill="#000000" stroke="#000000" stroke-miterlimit="10" pointer-events="none"/><rect x="576" y="240" width="20" height="30" rx="3" ry="3" fill="#ffffff" stroke="#000000" pointer-events="none"/><g fill="#000000" font-family="Helvetica" text-anchor="middle" font-size="12px"><text x="585.5" y="258.5">C</text></g><path d="M 606 190 L 606 205 Q 606 215 596 215 L 591 215 Q 586 215 586 224.32 L 586 233.63" fill="none" stroke="#000000" stroke-miterlimit="10" pointer-events="none"/><path d="M 586 238.88 L 582.5 231.88 L 586 233.63 L 589.5 231.88 Z" fill="#000000" stroke="#000000" stroke-miterlimit="10" pointer-events="none"/><rect x="616" y="240" width="20" height="30" rx="3" ry="3" fill="#ffffff" stroke="#000000" pointer-events="none"/><g fill="#000000" font-family="Helvetica" text-anchor="middle" font-size="12px"><text x="625.5" y="258.5">D</text></g><path d="M 606 190 L 606 205 Q 606 215 616 215 L 621 215 Q 626 215 626 224.32 L 626 233.63" fill="none" stroke="#000000" stroke-miterlimit="10" pointer-events="none"/><path d="M 626 238.88 L 622.5 231.88 L 626 233.63 L 629.5 231.88 Z" fill="#000000" stroke="#000000" stroke-miterlimit="10" pointer-events="none"/><rect x="666" y="160" width="40" height="30" rx="4.5" ry="4.5" fill="#ffffff" stroke="#000000" pointer-events="none"/><g fill="#000000" font-family="Helvetica" text-anchor="middle" font-size="12px"><text x="685.5" y="178.5">BC</text></g><path d="M 756 110 L 756 125 Q 756 135 746 135 L 696 135 Q 686 135 686 144.32 L 686 153.63" fill="none" stroke="#000000" stroke-miterlimit="10" pointer-events="none"/><path d="M 686 158.88 L 682.5 151.88 L 686 153.63 L 689.5 151.88 Z" fill="#000000" stroke="#000000" stroke-miterlimit="10" pointer-events="none"/><rect x="736" y="160" width="40" height="30" rx="4.5" ry="4.5" fill="#ffffff" stroke="#000000" pointer-events="none"/><g fill="#000000" font-family="Helvetica" text-anchor="middle" font-size="12px"><text x="755.5" y="178.5">BD</text></g><path d="M 756 110 L 756 125 Q 756 135 756 144.32 L 756 153.63" fill="none" stroke="#000000" stroke-miterlimit="10" pointer-events="none"/><path d="M 756 158.88 L 752.5 151.88 L 756 153.63 L 759.5 151.88 Z" fill="#000000" stroke="#000000" stroke-miterlimit="10" pointer-events="none"/><rect x="806" y="160" width="40" height="30" rx="4.5" ry="4.5" fill="#ffffff" stroke="#000000" pointer-events="none"/><g fill="#000000" font-family="Helvetica" text-anchor="middle" font-size="12px"><text x="825.5" y="178.5">CD</text></g><path d="M 756 110 L 756 125 Q 756 135 766 135 L 816 135 Q 826 135 826 144.32 L 826 153.63" fill="none" stroke="#000000" stroke-miterlimit="10" pointer-events="none"/><path d="M 826 158.88 L 822.5 151.88 L 826 153.63 L 829.5 151.88 Z" fill="#000000" stroke="#000000" stroke-miterlimit="10" pointer-events="none"/><rect x="656" y="240" width="20" height="30" rx="3" ry="3" fill="#ffffff" stroke="#000000" pointer-events="none"/><g fill="#000000" font-family="Helvetica" text-anchor="middle" font-size="12px"><text x="665.5" y="258.5">B</text></g><path d="M 686 190 L 686 205 Q 686 215 676 215 L 671 215 Q 666 215 666 224.32 L 666 233.63" fill="none" stroke="#000000" stroke-miterlimit="10" pointer-events="none"/><path d="M 666 238.88 L 662.5 231.88 L 666 233.63 L 669.5 231.88 Z" fill="#000000" stroke="#000000" stroke-miterlimit="10" pointer-events="none"/><rect x="696" y="240" width="20" height="30" rx="3" ry="3" fill="#ffffff" stroke="#000000" pointer-events="none"/><g fill="#000000" font-family="Helvetica" text-anchor="middle" font-size="12px"><text x="705.5" y="258.5">C</text></g><path d="M 686 190 L 686 205 Q 686 215 696 215 L 701 215 Q 706 215 706 224.32 L 706 233.63" fill="none" stroke="#000000" stroke-miterlimit="10" pointer-events="none"/><path d="M 706 238.88 L 702.5 231.88 L 706 233.63 L 709.5 231.88 Z" fill="#000000" stroke="#000000" stroke-miterlimit="10" pointer-events="none"/><rect x="726" y="240" width="20" height="30" rx="3" ry="3" fill="#ffffff" stroke="#000000" pointer-events="none"/><g fill="#000000" font-family="Helvetica" text-anchor="middle" font-size="12px"><text x="735.5" y="258.5">B</text></g><path d="M 756 190 L 756 205 Q 756 215 746 215 L 741 215 Q 736 215 736 224.32 L 736 233.63" fill="none" stroke="#000000" stroke-miterlimit="10" pointer-events="none"/><path d="M 736 238.88 L 732.5 231.88 L 736 233.63 L 739.5 231.88 Z" fill="#000000" stroke="#000000" stroke-miterlimit="10" pointer-events="none"/><rect x="766" y="240" width="20" height="30" rx="3" ry="3" fill="#ffffff" stroke="#000000" pointer-events="none"/><g fill="#000000" font-family="Helvetica" text-anchor="middle" font-size="12px"><text x="775.5" y="258.5">D</text></g><path d="M 756 190 L 756 205 Q 756 215 766 215 L 771 215 Q 776 215 776 224.32 L 776 233.63" fill="none" stroke="#000000" stroke-miterlimit="10" pointer-events="none"/><path d="M 776 238.88 L 772.5 231.88 L 776 233.63 L 779.5 231.88 Z" fill="#000000" stroke="#000000" stroke-miterlimit="10" pointer-events="none"/><rect x="796" y="240" width="20" height="30" rx="3" ry="3" fill="#ffffff" stroke="#000000" pointer-events="none"/><g fill="#000000" font-family="Helvetica" text-anchor="middle" font-size="12px"><text x="805.5" y="258.5">C</text></g><path d="M 826 190 L 826 205 Q 826 215 816 215 L 811 215 Q 806 215 806 224.32 L 806 233.63" fill="none" stroke="#000000" stroke-miterlimit="10" pointer-events="none"/><path d="M 806 238.88 L 802.5 231.88 L 806 233.63 L 809.5 231.88 Z" fill="#000000" stroke="#000000" stroke-miterlimit="10" pointer-events="none"/><rect x="836" y="240" width="20" height="30" rx="3" ry="3" fill="#ffffff" stroke="#000000" pointer-events="none"/><g fill="#000000" font-family="Helvetica" text-anchor="middle" font-size="12px"><text x="845.5" y="258.5">D</text></g><path d="M 826 190 L 826 205 Q 826 215 836 215 L 841 215 Q 846 215 846 224.32 L 846 233.63" fill="none" stroke="#000000" stroke-miterlimit="10" pointer-events="none"/><path d="M 846 238.88 L 842.5 231.88 L 846 233.63 L 849.5 231.88 Z" fill="#000000" stroke="#000000" stroke-miterlimit="10" pointer-events="none"/></g></svg>